# xmcd
# Track frame offsets:
# 150
# 11583
# 26817
# 41286
# 60445
# 77848
# 98279
# 111427
# 130840
# 148581
# 162574
#
# Disc length: 2392 seconds
# Revision: 0
# Processed by: cddbd v1.5.2PL0 Copyright (c) Steve Scherf et al.
# Submitted via: VisiTrax 2.9.10.228 - For more info visit www.synapsa.com
#
DISCID=8709560b
DTITLE=Kristin - Lucky me
DYEAR=2009
DGENRE=Country
TTITLE0=Lucky me
TTITLE1=Old flames
TTITLE2=Remeber when
TTITLE3=Don`t toss us away
TTITLE4=My kind of woman, my kind of man
TTITLE5=Hear me now
TTITLE6=Crazy dreams
TTITLE7=Nobody`s darling but mine
TTITLE8=What if i`m wrong
TTITLE9=The lonely side of love
TTITLE10=Sweet little lady
EXTD=
EXTT0=
EXTT1=
EXTT2=
EXTT3=
EXTT4=
EXTT5=
EXTT6=
EXTT7=
EXTT8=
EXTT9=
EXTT10=
PLAYORDER=
